HIERARCHY
ROOT Hips
{
  OFFSET 5.84602e-005 68.8428 3.50346
  CHANNELS 6 Xposition Yposition Zposition Zrotation Xrotation Yrotation
  JOINT Spine
  {
    OFFSET 0 8.597 -4.6522
    CHANNELS 3 Zrotation Xrotation Yrotation
    JOINT Spine1
    {
      OFFSET 0 7.8454 0.4098
      CHANNELS 3 Zrotation Xrotation Yrotation
      JOINT Spine2
      {
        OFFSET 0 9.7078 -2.1609
        CHANNELS 3 Zrotation Xrotation Yrotation
        JOINT Neck
        {
          OFFSET 0 21.8761 -0.4549
          CHANNELS 3 Zrotation Xrotation Yrotation
          JOINT Head
          {
            OFFSET 0 12.3537 3.3602
            CHANNELS 3 Zrotation Xrotation Yrotation
            End Site
            {
              OFFSET 0.0001 18.9506 0.5657
            }
          }
        }
        JOINT LeftShoulder
        {
          OFFSET 2.2086 21.1115 7.2329
          CHANNELS 3 Zrotation Xrotation Yrotation
          JOINT LeftArm
          {
            OFFSET 13.1193 3.0282 -4.8998
            CHANNELS 3 Zrotation Xrotation Yrotation
            JOINT LeftForeArm
            {
              OFFSET 27.4081 -0.0973053 -0.2375
              CHANNELS 3 Zrotation Xrotation Yrotation
              JOINT LeftHand
              {
                OFFSET 22.8641 0.0662994 -0.1369
                CHANNELS 3 Zrotation Xrotation Yrotation
                JOINT LeftHandIndex1
                {
                  OFFSET 8.8614 0.775009 2.4612
                  CHANNELS 3 Zrotation Xrotation Yrotation
                  JOINT LeftHandIndex2
                  {
                    OFFSET 3.3146 -0.808304 0.5841
                    CHANNELS 3 Zrotation Xrotation Yrotation
                    JOINT LeftHandIndex3
                    {
                      OFFSET 2.2628 -0.552002 0.3989
                      CHANNELS 3 Zrotation Xrotation Yrotation
                      End Site
                      {
                        OFFSET 1.6102 -0.4807 0.2612
                      }
                    }
                  }
                }
                JOINT LeftHandMiddle1
                {
                  OFFSET 8.9937 0.895004 0.2143
                  CHANNELS 3 Zrotation Xrotation Yrotation
                  JOINT LeftHandMiddle2
                  {
                    OFFSET 4.0984 0.0113983 -0.0242
                    CHANNELS 3 Zrotation Xrotation Yrotation
                    JOINT LeftHandMiddle3
                    {
                      OFFSET 2.2716 0.00689697 -0.0138001
                      CHANNELS 3 Zrotation Xrotation Yrotation
                      End Site
                      {
                        OFFSET 2.0404 -0.1441 0.0027
                      }
                    }
                  }
                }
                JOINT LeftHandRing1
                {
                  OFFSET 8.5234 0.597198 -2.0164
                  CHANNELS 3 Zrotation Xrotation Yrotation
                  JOINT LeftHandRing2
                  {
                    OFFSET 3.7188 -0.188293 -0.2328
                    CHANNELS 3 Zrotation Xrotation Yrotation
                    JOINT LeftHandRing3
                    {
                      OFFSET 2.1191 -0.106598 -0.1332
                      CHANNELS 3 Zrotation Xrotation Yrotation
                      End Site
                      {
                        OFFSET 1.8737 -0.2304 -0.0886
                      }
                    }
                  }
                }
                JOINT LeftHandPinky1
                {
                  OFFSET 7.9094 -0.601089 -3.4825
                  CHANNELS 3 Zrotation Xrotation Yrotation
                  JOINT LeftHandPinky2
                  {
                    OFFSET 2.2874 -0.477005 -0.6314
                    CHANNELS 3 Zrotation Xrotation Yrotation
                    JOINT LeftHandPinky3
                    {
                      OFFSET 1.6774 -0.349396 -0.4633
                      CHANNELS 3 Zrotation Xrotation Yrotation
                      End Site
                      {
                        OFFSET 1.4888 -0.4091 -0.3416
                      }
                    }
                  }
                }
                JOINT LeftHandThumb1
                {
                  OFFSET 1.833 -1.3875 1.3896
                  CHANNELS 3 Zrotation Xrotation Yrotation
                  JOINT LeftHandThumb2
                  {
                    OFFSET 3.4129 -1.121 2.5732
                    CHANNELS 3 Zrotation Xrotation Yrotation
                    JOINT LeftHandThumb3
                    {
                      OFFSET 2.2474 -0.804199 1.6192
                      CHANNELS 3 Zrotation Xrotation Yrotation
                      End Site
                      {
                        OFFSET 1.6527 -0.5689 1.1317
                      }
                    }
                  }
                }
              }
            }
          }
        }
        JOINT RightShoulder
        {
          OFFSET -2.2086 21.1115 7.2329
          CHANNELS 3 Zrotation Xrotation Yrotation
          JOINT RightArm
          {
            OFFSET -13.1216 3.0287 -4.9007
            CHANNELS 3 Zrotation Xrotation Yrotation
            JOINT RightForeArm
            {
              OFFSET -27.4081 -0.0973053 -0.2375
              CHANNELS 3 Zrotation Xrotation Yrotation
              JOINT RightHand
              {
                OFFSET -22.8641 0.0664063 -0.1369
                CHANNELS 3 Zrotation Xrotation Yrotation
                JOINT RightHandIndex1
                {
                  OFFSET -8.8614 0.774994 2.4612
                  CHANNELS 3 Zrotation Xrotation Yrotation
                  JOINT RightHandIndex2
                  {
                    OFFSET -3.3146 -0.808304 0.5841
                    CHANNELS 3 Zrotation Xrotation Yrotation
                    JOINT RightHandIndex3
                    {
                      OFFSET -2.2628 -0.552002 0.3989
                      CHANNELS 3 Zrotation Xrotation Yrotation
                      End Site
                      {
                        OFFSET -1.6102 -0.4807 0.2612
                      }
                    }
                  }
                }
                JOINT RightHandMiddle1
                {
                  OFFSET -8.9937 0.894989 0.2143
                  CHANNELS 3 Zrotation Xrotation Yrotation
                  JOINT RightHandMiddle2
                  {
                    OFFSET -4.0984 0.0113983 -0.0242
                    CHANNELS 3 Zrotation Xrotation Yrotation
                    JOINT RightHandMiddle3
                    {
                      OFFSET -2.2716 0.00691223 -0.0138001
                      CHANNELS 3 Zrotation Xrotation Yrotation
                      End Site
                      {
                        OFFSET -2.0404 -0.1441 0.0027
                      }
                    }
                  }
                }
                JOINT RightHandRing1
                {
                  OFFSET -8.5234 0.597198 -2.0164
                  CHANNELS 3 Zrotation Xrotation Yrotation
                  JOINT RightHandRing2
                  {
                    OFFSET -3.7188 -0.188309 -0.2328
                    CHANNELS 3 Zrotation Xrotation Yrotation
                    JOINT RightHandRing3
                    {
                      OFFSET -2.1191 -0.106598 -0.1332
                      CHANNELS 3 Zrotation Xrotation Yrotation
                      End Site
                      {
                        OFFSET -1.8737 -0.2304 -0.0886
                      }
                    }
                  }
                }
                JOINT RightHandPinky1
                {
                  OFFSET -7.9094 -0.601105 -3.4825
                  CHANNELS 3 Zrotation Xrotation Yrotation
                  JOINT RightHandPinky2
                  {
                    OFFSET -2.2874 -0.477005 -0.6314
                    CHANNELS 3 Zrotation Xrotation Yrotation
                    JOINT RightHandPinky3
                    {
                      OFFSET -1.6774 -0.349396 -0.4633
                      CHANNELS 3 Zrotation Xrotation Yrotation
                      End Site
                      {
                        OFFSET -1.4888 -0.4091 -0.3416
                      }
                    }
                  }
                }
                JOINT RightHandThumb1
                {
                  OFFSET -1.833 -1.38751 1.3896
                  CHANNELS 3 Zrotation Xrotation Yrotation
                  JOINT RightHandThumb2
                  {
                    OFFSET -3.41299 -1.12099 2.5732
                    CHANNELS 3 Zrotation Xrotation Yrotation
                    JOINT RightHandThumb3
                    {
                      OFFSET -2.24741 -0.804108 1.6192
                      CHANNELS 3 Zrotation Xrotation Yrotation
                      End Site
                      {
                        OFFSET -1.6527 -0.5689 1.1317
                      }
                    }
                  }
                }
              }
            }
          }
        }
      }
    }
  }
  JOINT RightUpLeg
  {
    OFFSET -9.1966 3.8861 -0.7581
    CHANNELS 3 Zrotation Xrotation Yrotation
    JOINT RightLeg
    {
      OFFSET -0.7359 -41.0265 0
      CHANNELS 3 Zrotation Xrotation Yrotation
      JOINT RightFoot
      {
        OFFSET 0 -40.2855 0
        CHANNELS 3 Zrotation Xrotation Yrotation
        JOINT RightToeBase
        {
          OFFSET 0 -5.6122 11.7359
          CHANNELS 3 Zrotation Xrotation Yrotation
          End Site
          {
            OFFSET 0 0 7.8731
          }
        }
      }
    }
  }
  JOINT LeftUpLeg
  {
    OFFSET 9.1965 3.8864 -0.7581
    CHANNELS 3 Zrotation Xrotation Yrotation
    JOINT LeftLeg
    {
      OFFSET 0.7359 -41.0268 0
      CHANNELS 3 Zrotation Xrotation Yrotation
      JOINT LeftFoot
      {
        OFFSET 0 -40.2855 0
        CHANNELS 3 Zrotation Xrotation Yrotation
        JOINT LeftToeBase
        {
          OFFSET 0 -5.6122 11.7359
          CHANNELS 3 Zrotation Xrotation Yrotation
          End Site
          {
            OFFSET 0 0 7.8731
          }
        }
      }
    }
  }
}
MOTION
Frames:	7
Frame Time:	0.0333333
5.84602e-005 68.8428 3.50346 0 0 -0 0 0 -0 0 0 -0 0 0 -0 0 0 -0 0 0 -0 0 0 -0 0 0 -0 0 0 -0 0 0 -0 0 0 -0 0 0 -0 0 0 -0 0 0 -0 -0.0146107 -8.87603e-005 -2.63497e-007 2.99804e-018 -2.42657e-020 -1.42182e-022 0 0 -0 -0.0187562 -0.001176 5.858e-005 5.06224e-018 3.88251e-019 1.21329e-020 0 0 -0 -0.012269 -0.00324817 0.000675346 -1.74678e-018 3.88251e-019 -0 0 0 -0 0 0 -0 0 0 -0 0 0 -0 0 0 -0 0 0 -0 0 0 -0 0 0 -0 0 0 -0 0 0 -0 0 0 -0 0.0149955 -9.10982e-005 2.64101e-007 -9.69331e-018 1.21329e-020 -4.7394e-023 0 0 -0 0.0189956 -0.00119102 -5.96516e-005 -5.41541e-019 0 2.42657e-020 0 0 -0 0.0122698 -0.00324857 -0.000673756 -2.00796e-019 0 -1.94126e-019 0 0 -0 0 0 -0 0 0 -0 3.39842 1.33031 -0.0637918 -5.65207e-008 0.834868 -0.000436188 -3.39935 -2.16518 -0.0642563 -8.89002e-024 -1.18485e-023 -1.48106e-024 -3.39844 1.35642 0.0640283 -3.18788e-007 0.782166 -0.000588827 3.39931 -2.13858 0.0634662 1.1399e-023 0 -0 
-27.9282 0.20332 6.29975 -180 -89.9981 -180 -0.363065 8.41609 -0.0759628 -0.726681 16.8325 -0.0989528 -0.72668 16.8325 -0.0989523 -2.27611e-005 17.9988 1.21619e-005 -3.85472e-008 8.99857 1.27921e-007 0.841571 0.295564 8.94055 -55.897 14.0755 32.9002 41.6331 -10.91 -76.747 -10.1808 10.172 -31.9553 -2.699e-007 1.76223e-007 -5.4022e-007 4.22687e-007 4.72205e-007 -9.01758e-008 1.40896e-007 1.57402e-007 -3.00586e-008 -2.699e-007 1.76223e-007 -5.4022e-007 -0.014613 -8.61238e-005 3.55617e-006 1.40896e-007 1.57406e-007 -3.00386e-008 -2.699e-007 1.76223e-007 -5.4022e-007 -0.0187541 -0.00117291 7.02407e-005 1.40896e-007 1.57407e-007 -3.00343e-008 -2.699e-007 1.76223e-007 -5.4022e-007 -0.012271 -0.00324815 0.000671354 1.40896e-007 1.57404e-007 -3.00458e-008 -2.699e-007 1.76223e-007 -5.4022e-007 4.22687e-007 4.72205e-007 -9.01758e-008 1.40896e-007 1.57402e-007 -3.00586e-008 -0.60742 0.433275 -8.61063 77.1126 0.634024 -30.2949 -33.0861 8.3212 77.4736 7.08677 23.5989 -0.220553 1.98785e-015 5.76476e-015 1.59028e-015 6.10128e-007 -2.03957e-006 -3.45872e-006 -5.2337e-007 2.22522e-006 -9.93129e-007 1.98785e-015 5.76476e-015 1.59028e-015 0.0150032 -9.10117e-005 -4.29252e-006 -5.21995e-007 2.22508e-006 -9.9342e-007 1.98785e-015 5.76476e-015 1.59028e-015 0.0189859 -0.00119078 -6.19227e-005 2.37247e-031 -8.54774e-015 1.59028e-015 1.98785e-015 5.76476e-015 1.59028e-015 0.0122504 -0.00324199 -0.000670223 -0 -3.57812e-015 -0 1.98785e-015 5.76476e-015 1.59028e-015 6.10128e-007 -2.03957e-006 -3.45872e-006 -5.2337e-007 2.22522e-006 -9.93129e-007 -7.22951 -25.4931 -5.87399 6.11585 67.2864 -8.37565 -8.74473 14.3367 0.195348 4.32233e-007 4.53349e-008 -1.2977e-007 16.1933 0.605956 1.10863 -2.23191 13.1331 1.99353 7.47897 36.7703 -7.324 -7.97417e-007 1.03869e-007 2.79773e-007 
-27.9284 0.202889 6.29973 -180 -89.9981 -180 -0.363065 8.41609 -0.0759628 -0.726681 16.8325 -0.0989528 -0.72668 16.8325 -0.0989523 -0.00791382 17.8546 0.0475876 -1.76186e-009 8.43284 -3.17194e-007 0.841571 0.295564 8.94055 -55.897 14.0755 32.9002 41.14 -11.0457 -77.377 -10.1808 10.172 -31.9553 2.79959e-007 3.16134e-007 -6.16116e-008 1.75515e-007 6.24491e-007 -6.83975e-007 6.64363e-007 3.2391e-007 4.9914e-007 2.79959e-007 3.16134e-007 -6.16116e-008 -0.0146127 -8.94768e-005 2.01982e-006 2.79961e-007 3.16141e-007 -6.15715e-008 2.79959e-007 3.16134e-007 -6.16116e-008 -0.0187551 -0.00117514 6.54106e-005 2.79961e-007 3.16144e-007 -6.15627e-008 2.79959e-007 3.16134e-007 -6.16116e-008 -0.0122665 -0.00324589 0.000679375 2.79961e-007 3.16139e-007 -6.15857e-008 2.79959e-007 3.16134e-007 -6.16116e-008 1.75515e-007 6.24491e-007 -6.83975e-007 6.64363e-007 3.2391e-007 4.9914e-007 -0.60742 0.433275 -8.61063 77.1126 0.634024 -30.2949 -33.0861 8.3212 77.4736 7.08677 23.5989 -0.220553 1.98785e-015 5.76476e-015 1.59028e-015 6.10128e-007 -2.03957e-006 -3.45872e-006 -5.2337e-007 2.22522e-006 -9.93129e-007 1.98785e-015 5.76476e-015 1.59028e-015 0.0150032 -9.10117e-005 -4.29252e-006 -5.21995e-007 2.22508e-006 -9.9342e-007 1.98785e-015 5.76476e-015 1.59028e-015 0.0189859 -0.00119078 -6.19227e-005 2.37247e-031 -8.54774e-015 1.59028e-015 1.98785e-015 5.76476e-015 1.59028e-015 0.0122504 -0.00324199 -0.000670223 -0 -3.57812e-015 -0 1.98785e-015 5.76476e-015 1.59028e-015 6.10128e-007 -2.03957e-006 -3.45872e-006 -5.2337e-007 2.22522e-006 -9.93129e-007 -7.42719 -25.5247 -6.31311 6.11566 67.2856 -8.3748 -8.74398 14.3357 0.195176 4.94496e-008 5.24158e-009 -1.48681e-008 16.1935 0.605813 1.10861 -2.23191 13.1328 1.99345 7.47883 36.7708 -7.32399 -2.67202e-006 2.48409e-007 4.19024e-008 
-27.9286 0.202455 6.29971 -180 -89.9981 -180 -0.363065 8.41609 -0.0759628 -0.726681 16.8325 -0.0989528 -0.72668 16.8325 -0.0989523 -0.0156764 17.7103 0.0951147 3.47061e-007 7.86623 8.44079e-008 0.841571 0.295564 8.94055 -55.897 14.0755 32.9002 40.6441 -11.1763 -78.0097 -10.1808 10.172 -31.9553 2.78112e-007 3.17453e-007 -6.31061e-008 -1.39056e-007 -1.58727e-007 3.15531e-008 4.41391e-032 1.59028e-015 -1.59028e-015 2.78112e-007 3.17453e-007 -6.31061e-008 -0.0146123 -8.99172e-005 -9.70266e-006 2.20695e-032 3.97569e-016 -3.18055e-015 2.78112e-007 3.17453e-007 -6.31061e-008 -0.0187596 -0.00117575 6.06337e-005 1.59028e-015 -3.18055e-015 4.77083e-015 2.78112e-007 3.17453e-007 -6.31061e-008 -0.0122718 -0.00324645 0.000674749 3.59015e-007 3.46331e-008 6.11349e-007 2.78112e-007 3.17453e-007 -6.31061e-008 -1.39056e-007 -1.58727e-007 3.15531e-008 4.41391e-032 1.59028e-015 -1.59028e-015 -0.60742 0.433275 -8.61063 77.1126 0.634024 -30.2949 -33.0861 8.32121 77.4736 7.08676 23.5989 -0.220558 1.59028e-015 -4.87022e-015 3.18055e-015 3.97569e-016 -1.14301e-014 1.59028e-015 -7.95139e-016 -8.44835e-015 -0 1.59028e-015 -4.87022e-015 3.18055e-015 0.0150022 -8.88004e-005 -1.1734e-005 -1.07589e-031 3.8763e-015 1.59028e-015 1.59028e-015 -4.87022e-015 3.18055e-015 0.0189831 -0.00119105 -6.77648e-005 -1.60004e-031 5.76476e-015 1.59028e-015 1.59028e-015 -4.87022e-015 3.18055e-015 0.0122684 -0.00324834 -0.000675782 7.95139e-016 1.60022e-014 6.36111e-015 1.59028e-015 -4.87022e-015 3.18055e-015 3.97569e-016 -1.14301e-014 1.59028e-015 -7.95139e-016 -8.44835e-015 -0 -7.6253 -25.5554 -6.75272 6.11549 67.2851 -8.37406 -8.74316 14.3347 0.194988 -1.95951e-007 3.26931e-006 -5.71974e-008 16.1936 0.605831 1.10859 -2.2319 13.1321 1.99336 7.47871 36.7715 -7.32401 3.18055e-015 6.36111e-015 -1.59028e-015 
-27.9289 0.20202 6.29969 -180 -89.9981 -180 -0.363064 8.41593 -0.0759628 -0.726682 16.8325 -0.0989527 -0.726681 16.8325 -0.0989521 -0.0233193 17.5661 0.142601 2.40097e-008 7.29873 -9.43448e-008 0.841571 0.295533 8.94055 -55.897 14.0755 32.9002 40.1458 -11.3018 -78.6449 -10.1808 10.172 -31.9553 3.31414e-007 6.1116e-008 6.62146e-007 -1.59028e-015 3.18055e-015 -1.59028e-015 1.38125e-007 1.59381e-007 -3.23006e-008 3.31414e-007 6.1116e-008 6.62146e-007 -0.0146111 -8.7287e-005 2.75116e-006 1.38126e-007 1.59385e-007 -3.22804e-008 3.31414e-007 6.1116e-008 6.62146e-007 -0.0187569 -0.00117549 5.58333e-005 1.38126e-007 1.59386e-007 -3.2276e-008 3.31414e-007 6.1116e-008 6.62146e-007 -0.0122697 -0.00324924 0.000673744 4.70608e-007 2.20705e-007 6.29798e-007 3.31414e-007 6.1116e-008 6.62146e-007 -1.59028e-015 3.18055e-015 -1.59028e-015 1.38125e-007 1.59381e-007 -3.23006e-008 -0.60742 0.433222 -8.61063 77.1126 0.634022 -30.2949 -33.0861 8.32122 77.4736 7.08677 23.5989 -0.220565 2.32411e-006 2.50962e-007 -6.05751e-007 3.69841e-006 -5.99958e-007 -5.36316e-006 4.89918e-006 -1.82219e-006 -1.21687e-006 2.32411e-006 2.50962e-007 -6.05751e-007 0.0149802 -8.76964e-005 4.73719e-007 4.8991e-006 -1.82235e-006 -1.21663e-006 2.32411e-006 2.50962e-007 -6.05751e-007 0.0189833 -0.00118873 -6.13169e-005 4.37742e-006 4.02565e-007 -2.2101e-006 2.32411e-006 2.50962e-007 -6.05751e-007 0.0122663 -0.0032485 -0.000674184 4.8991e-006 -1.82227e-006 -1.21681e-006 2.32411e-006 2.50962e-007 -6.05751e-007 3.69841e-006 -5.99958e-007 -5.36316e-006 4.89918e-006 -1.82219e-006 -1.21687e-006 -7.82386 -25.5851 -7.19282 6.11538 67.2851 -8.37343 -8.74229 14.3336 0.194799 -3.04892e-007 -3.29978e-008 9.1942e-008 16.1938 0.60544 1.10857 -2.23189 13.1323 1.99329 7.47854 36.7717 -7.32397 -1.87461e-006 1.4454e-007 -2.37871e-007 
-27.9291 0.201582 6.29967 -180 -89.9981 -180 -0.363064 8.41607 -0.0759626 -0.726681 16.8325 -0.0989527 -0.726681 16.8325 -0.0989526 -0.030806 17.4214 0.190026 1.85572e-007 6.73036 -1.50077e-007 0.841572 0.295556 8.94055 -55.897 14.0755 32.9002 39.6449 -11.422 -79.2826 -10.1808 10.172 -31.9553 -2.74374e-007 -3.2006e-007 6.60955e-008 -1.37187e-007 -1.6003e-007 3.30477e-008 -4.77083e-015 4.37326e-015 -0 -2.74374e-007 -3.2006e-007 6.60955e-008 -0.01461 -8.90278e-005 -7.47908e-006 -4.77083e-015 6.36111e-015 -1.59028e-015 -2.74374e-007 -3.2006e-007 6.60955e-008 -0.0187545 -0.00117693 6.03631e-005 -6.36111e-015 3.97569e-015 -1.59028e-015 -2.74374e-007 -3.2006e-007 6.60955e-008 -0.0122709 -0.00324591 0.000684078 -3.18055e-015 -2.78299e-015 -1.59028e-015 -2.74374e-007 -3.2006e-007 6.60955e-008 -1.37187e-007 -1.6003e-007 3.30477e-008 -4.77083e-015 4.37326e-015 -0 -0.60742 0.43325 -8.61063 77.1126 0.634016 -30.2949 -33.0861 8.32122 77.4736 7.08677 23.5989 -0.220566 -2.32411e-006 -2.50962e-007 6.05751e-007 -4.39726e-006 -2.82604e-006 1.20614e-006 -2.32411e-006 -2.50962e-007 6.05751e-007 -2.32411e-006 -2.50962e-007 6.05751e-007 0.015004 -9.20649e-005 -1.10472e-005 -2.32411e-006 -2.50883e-007 6.05785e-007 -2.32411e-006 -2.50962e-007 6.05751e-007 0.0189819 -0.00119029 -5.7559e-005 -2.32411e-006 -2.50863e-007 6.05816e-007 -2.32411e-006 -2.50962e-007 6.05751e-007 0.0122493 -0.00324282 -0.000684278 -2.84638e-006 1.9739e-006 -3.87568e-007 -2.32411e-006 -2.50962e-007 6.05751e-007 -4.39726e-006 -2.82604e-006 1.20614e-006 -2.32411e-006 -2.50962e-007 6.05751e-007 -8.02301 -25.6127 -7.6335 6.11521 67.2842 -8.37246 -8.74138 14.3326 0.19461 -8.55101e-007 -7.51034e-008 -6.28728e-007 16.1939 0.605218 1.10854 -2.23189 13.1321 1.99322 7.47839 36.7721 -7.32395 2.101e-007 1.37242e-006 7.03368e-007 
-27.9293 0.201143 6.29965 -180 -89.9981 -180 -0.363064 8.41609 -0.0759629 -0.726681 16.8325 -0.0989528 -0.72668 16.8325 -0.0989522 -0.0381811 17.2774 0.237411 9.70456e-008 6.16118 -1.08204e-010 0.841571 0.295565 8.94055 -55.897 14.0755 32.9002 39.1417 -11.5369 -79.9226 -10.1808 10.172 -31.9553 2.72483e-007 3.21346e-007 -6.75898e-008 2.72483e-007 3.21346e-007 -6.75898e-008 2.72483e-007 3.21346e-007 -6.75898e-008 2.72483e-007 3.21346e-007 -6.75898e-008 -0.014612 -8.75028e-005 1.15948e-007 2.72485e-007 3.21355e-007 -6.7549e-008 2.72483e-007 3.21346e-007 -6.75898e-008 -0.0187564 -0.00117335 6.89673e-005 -5.28332e-007 2.38514e-007 -3.66352e-006 2.72483e-007 3.21346e-007 -6.75898e-008 -0.0122714 -0.00324909 0.000674356 2.72485e-007 3.21352e-007 -6.75632e-008 2.72483e-007 3.21346e-007 -6.75898e-008 2.72483e-007 3.21346e-007 -6.75898e-008 2.72483e-007 3.21346e-007 -6.75898e-008 -0.60742 0.433275 -8.61063 77.1126 0.634026 -30.2949 -33.0861 8.32121 77.4736 7.08677 23.5989 -0.220555 -3.97569e-016 -5.56597e-015 -0 -1.19271e-015 -2.88238e-015 -3.18055e-015 -3.97569e-016 -3.37934e-015 -0 -3.97569e-016 -5.56597e-015 -0 0.0150011 -9.00878e-005 -1.14327e-005 -1.19271e-015 8.94531e-016 -1.59028e-015 -3.97569e-016 -5.56597e-015 -0 0.0189879 -0.00119082 -5.90729e-005 1.59028e-015 1.59028e-015 1.59028e-015 -3.97569e-016 -5.56597e-015 -0 0.0122684 -0.00324834 -0.000675781 -1.19271e-015 4.27387e-015 -3.18055e-015 -3.97569e-016 -5.56597e-015 -0 -1.19271e-015 -2.88238e-015 -3.18055e-015 -3.97569e-016 -3.37934e-015 -0 -8.22256 -25.6394 -8.0746 6.11509 67.2839 -8.37162 -8.74039 14.3316 0.194405 -4.06307e-007 -4.48818e-008 1.22884e-007 16.1941 0.605041 1.10852 -2.2319 13.1318 1.99314 7.47825 36.7726 -7.32394 -1.44071e-007 3.06327e-006 -1.84762e-006 
